<?xml version="1.0" encoding="UTF-8"?>
<svg id="Layer_1" data-name="Layer 1" xmlns="http://www.w3.org/2000/svg" viewBox="0 0 2314.26 3109.8">
  <defs>
    <style>
      .cls-1 {
        fill: #fff;
      }

      .cls-1, .cls-2, .cls-3, .cls-4 {
        fill-rule: evenodd;
      }

      .cls-2 {
        opacity: .49;
      }

      .cls-2, .cls-3 {
        fill: #ccc;
      }
    </style>
  </defs>
  <path class="cls-4" d="m1157.13,222.98s-127.1-8.99-332.45,37.47c-155.54,35.19-271.49,109.08-318.6,142.85C319.66,324.29,139.86,128.88,0,0c0,0,7.49,344.74,202.34,599.54l-137.89-20.98s41.3,92.43,163.72,194.47h0s13.47,227.86-152.91,467.68c0,0,68.95,19.48,106.42,19.48,0,0-67.44,71.95-128.9,220.34,0,0,59.95-71.95,148.39-67.45,0,0-5.27,108.44,42.95,254.55l-.04-.04s-180.86,437.97,142.9,809.69c323.75,371.72,770.15,632.53,770.15,632.53,0,0,446.39-260.8,770.15-632.53,323.76-371.72,142.9-809.69,142.9-809.69l-.03.04c48.22-146.11,42.95-254.55,42.95-254.55,88.44-4.5,148.39,67.45,148.39,67.45-61.45-148.39-128.9-220.34-128.9-220.34,37.47,0,106.42-19.48,106.42-19.48-166.38-239.82-152.91-467.67-152.91-467.67h0c122.42-102.04,163.72-194.47,163.72-194.47l-137.89,20.98C2306.77,344.74,2314.26,0,2314.26,0c-139.86,128.88-319.67,324.29-506.07,403.3-47.11-33.77-163.07-107.66-318.6-142.85-205.35-46.47-332.45-37.47-332.45-37.47"/>
  <path class="cls-1" d="m1018.81,1132.77s28.48-188.85-169.37-308.76c0,0,82.44,13.48,116.91,31.48,0,0-115.41-217.34-307.27-313.26C467.23,446.29,228.91,320.39,114.99,228.95c0,0,29.98,130.4,88.43,235.32,58.46,104.92,170.87,188.86,398.7,254.81,0,0-232.32-25.48-352.23-40.47,0,0,50.96,106.42,383.7,154.39l-109.42,16.49s138.65,58.46,239.07,106.42c100.43,47.97,172.37,94.43,255.57,176.86"/>
  <path class="cls-1" d="m1295.45,1132.77s-28.48-188.85,169.37-308.76c0,0-82.43,13.48-116.91,31.48,0,0,115.41-217.34,307.27-313.26,191.86-95.93,430.18-221.83,544.1-313.26,0,0-29.98,130.4-88.43,235.32-58.46,104.92-170.87,188.86-398.7,254.81,0,0,232.32-25.48,352.23-40.47,0,0-50.96,106.42-383.71,154.39l109.42,16.49s-138.65,58.46-239.07,106.42c-100.42,47.97-172.37,94.43-255.56,176.86"/>
  <path class="cls-1" d="m1157.13,1917.8s-113.19-286.28-165.65-398.7l65.95,242.81-143.14-224.08,242.84-450.04,242.85,450.04-143.14,224.08,65.95-242.81c-52.46,112.42-165.65,398.7-165.65,398.7"/>
  <path class="cls-1" d="m1157.13,2262.94s-67.14-197.85-402.88-314.76l14.99,85.43s-261.96-151.08-340.25-479.64c0,0-17.98,182.86-23.98,257.81,0,0-214.34-235.32-125.9-544.09l-94.43,76.45s95.93-191.86,139.4-233.83l-140.89,70.45s102.79-120.19,129.47-345.41c5.11,3.34,10.3,6.68,15.6,10.01,39.65,24.86,74.85,44.62,106.87,60.92h0s-112.52,139.57-91.54,281.96c20.99,142.39,101.92,224.83,187.36,262.3,0,0-139.39-94.43-148.39-224.83-8.99-130.4,59.95-236.82,59.95-236.82,0,0-82.44,172.37,23.98,335.75,106.42,163.38,364.23,100.43,407.7,77.94,0,0-175.37,203.84-403.19,94.43,0,0,199.25,139.88,430.86-37.21-34.34,62.93-158.41,151.38-344.27,123,0,0,161.88,41.97,241.32,20.99,79.44-20.99,92.93,1.5,121.41,46.46,28.47,44.97,7.49,49.46-56.96,47.97-64.45-1.5-161.13-44.22-161.13-44.22,0,0,68.2,92.93,242.07,104.17,0,0,50.96-9.75,106.42,81.68,55.46,91.43,106.44,248.82,106.44,248.82,0,0,50.98-157.38,106.44-248.82,55.46-91.43,106.42-81.68,106.42-81.68,173.87-11.24,242.07-104.17,242.07-104.17,0,0-96.68,42.72-161.13,44.22-64.46,1.5-85.44-3-56.96-47.97,28.48-44.97,41.97-67.45,121.41-46.46,79.44,20.98,241.32-20.99,241.32-20.99-185.86,28.38-309.93-60.07-344.27-123,231.61,177.09,430.86,37.21,430.86,37.21-227.83,109.42-403.2-94.43-403.2-94.43,43.47,22.48,301.28,85.43,407.7-77.94,106.42-163.37,23.98-335.75,23.98-335.75,0,0,68.94,106.42,59.95,236.82-9,130.4-148.39,224.83-148.39,224.83,85.43-37.47,166.37-119.91,187.36-262.3,20.98-142.39-91.55-281.96-91.55-281.96h0c32.03-16.31,67.22-36.07,106.88-60.93,5.31-3.33,10.49-6.66,15.6-10.01,26.67,225.22,129.47,345.41,129.47,345.41l-140.9-70.45c43.47,41.97,139.4,233.83,139.4,233.83l-94.43-76.45c88.44,308.77-125.9,544.09-125.9,544.09-5.99-74.94-23.98-257.81-23.98-257.81-78.29,328.56-340.25,479.64-340.25,479.64l14.99-85.43c-335.75,116.91-402.88,314.76-402.88,314.76"/>
  <path class="cls-1" d="m1157.13,2989.89s-280.15-159.61-386.45-566.57c0,0,1.5,142.39,1.5,301.28,0,0-439.17-272.79-457.16-716.46,0,0,47.96,137.9,182.86,257.81,0,0-134.16-115.42-133.37-358.9,39.96,56.87,89.63,114,151.42,168.55,0,0-50.96-169.37-34.48-257.81,0,0,85.44,169.37,340.24,295.28,0,0-4.5-41.97-11.99-76.44,0,0,79.44,10.49,178.36,109.42,98.93,98.92,169.06,248.82,169.06,248.82,0,0,70.14-149.89,169.06-248.82,98.93-98.92,178.36-109.42,178.36-109.42-7.49,34.47-11.99,76.44-11.99,76.44,254.81-125.91,340.24-295.28,340.24-295.28,16.49,88.44-34.47,257.81-34.47,257.81,61.78-54.54,111.45-111.67,151.41-168.55.79,243.49-133.37,358.9-133.37,358.9,134.9-119.91,182.87-257.81,182.87-257.81-17.99,443.67-457.16,716.46-457.16,716.46,0-158.88,1.5-301.28,1.5-301.28-106.3,406.97-386.45,566.57-386.45,566.57"/>
  <path class="cls-1" d="m1157.13,1017.73l-52.46,67.45s-92.93-356.72-287.78-509.61c0,0,178.37,3,296.78,115.41,0,0-56.96-80.94-188.85-127.4-131.91-46.46-164.88-35.97-244.32-79.44,0,0,179.87-62.95,328.26,0,0,0-137.9-77.94-412.19-52.46,0,0,121.7-82.79,276.09-106.78,154.39-23.98,230.83,70.45,230.83,70.45-53.67,0-101.92,5.99-101.92,5.99,88.43,41.97,155.58,184.36,155.58,184.36,0,0,67.15-142.39,155.59-184.36,0,0-48.26-5.99-101.93-5.99,0,0,76.44-94.43,230.83-70.45,154.39,23.98,276.09,106.78,276.09,106.78-274.29-25.48-412.19,52.46-412.19,52.46,148.38-62.95,328.26,0,328.26,0-79.44,43.47-112.41,32.98-244.32,79.44-131.9,46.47-188.86,127.4-188.86,127.4,118.41-112.42,296.78-115.41,296.78-115.41-194.85,152.89-287.78,509.61-287.78,509.61l-52.46-67.45Z"/>
  <path class="cls-3" d="m203.42,464.28c58.46,104.92,170.87,188.86,398.7,254.81-146.2-50.94-222.52-119.93-222.52-119.93,32.98-6.75,77.94-26.98,77.94-26.98-162.71-13.11-217.34-206.85-217.34-206.85,82.44,64.45,364.23,193.36,364.23,193.36l-56.96,14.99c238.32,16.49,341.74,224.83,341.74,224.83-50.77-13.18-106.42,4.5-106.42,4.5,94.43,52.46,160.38,200.84,160.38,200.84-175.37-94.43-411.62-151.23-411.62-151.23,29.96,12.73,145.05,61.92,231.69,103.29,100.43,47.97,172.37,94.43,255.57,176.86,0,0,28.48-188.85-169.37-308.76,0,0,82.44,13.48,116.91,31.48,0,0-115.41-217.34-307.27-313.26C467.23,446.29,228.91,320.39,114.99,228.95c0,0,29.98,130.4,88.43,235.32"/>
  <path class="cls-3" d="m602.12,719.09s-232.32-25.48-352.23-40.47c0,0,50.96,106.42,383.7,154.39-199.41-36.71-303.46-118.43-303.46-118.43,41.22,9.74,271.98,4.52,271.98,4.52"/>
  <path class="cls-3" d="m1157.13,1017.73v-73.22c-24.62,15.96-47.58,32.36-47.58,32.36-11.99-69.7-59.2-160.38-59.2-160.38,29.98,10.49,68.95,50.96,68.95,50.96-46.46-85.44-130.4-203.85-130.4-203.85,62.96,7.49,124.78,27.38,124.78,27.38-118.41-112.42-296.78-115.41-296.78-115.41,194.85,152.89,287.78,509.61,287.78,509.61l52.46-67.45Z"/>
  <path class="cls-3" d="m596.56,431.67c274.29-25.48,412.19,52.46,412.19,52.46,0,0-125.53-91.08-282.16-82.09,0,0,139.4-95.93,312.52-30.73l-37.56,30.02s48.26-5.99,101.92-5.99c0,0-76.44-94.43-230.83-70.45-154.38,23.98-276.09,106.78-276.09,106.78"/>
  <path class="cls-3" d="m1008.74,484.13c-148.38-62.95-328.26,0-328.26,0,79.44,43.47,112.41,32.98,244.32,79.44,124.06,43.7,181.82,117.9,188.25,126.57-7.26-9.87-78.81-104.76-179.62-150.21-106.42-47.96-151.39-47.21-151.39-47.21,0,0,114.78-46.01,226.7-8.59"/>
  <path class="cls-3" d="m1001.55,401.34s115.48,103.38,155.58,224.78v-40.42s-67.15-142.39-155.58-184.36"/>
  <polygon class="cls-3" points="1029.35 1413.78 1120.78 1287.87 1069.82 1299.86 1157.13 1163.47 1244.44 1299.86 1193.47 1287.87 1284.9 1413.78 1262.42 1346.33 1376.62 1494.56 1157.13 1087.8 937.64 1494.56 1051.84 1346.33 1029.35 1413.78"/>
  <polygon class="cls-3" points="1057.43 1761.92 991.48 1519.1 988.13 1615.38 914.29 1537.84 1057.43 1761.92"/>
  <path class="cls-3" d="m991.48,1519.1c52.46,112.42,165.65,398.7,165.65,398.7,0,0,113.19-286.28,165.65-398.7l-94.83,165.97,10.49-91.43-81.32,164.88-81.31-164.88,10.49,91.43-94.84-165.97Z"/>
  <path class="cls-3" d="m310.64,1169.46s-29.23,195.6,193.36,296.03c0,0,137.15,42.72,251.81,1.5,0,0-125.27,90.78-284.84,30.03,227.82,109.42,403.19-94.43,403.19-94.43-43.47,22.48-301.27,85.43-407.7-77.94-106.42-163.37-23.98-335.75-23.98-335.75,0,0-68.95,106.42-59.95,236.82,9,130.4,148.39,224.83,148.39,224.83-85.44-37.47-166.37-119.91-187.36-262.3-20.98-142.39,91.54-281.96,91.55-281.96-32.02-16.31-67.22-36.07-106.87-60.92-5.31-3.33-10.49-6.66-15.6-10.01-26.68,225.22-129.47,345.41-129.47,345.41l140.89-70.45c-43.47,41.97-139.4,233.83-139.4,233.83l94.43-76.45-32.16,7.43,63.7-105.67Z"/>
  <path class="cls-3" d="m901.83,1459.8c-231.61,177.09-430.86,37.21-430.86,37.21,0,0,68.25,73.4,215.89,68.9,0,0-66.34,23.23-117.49,18.55,179.3,22.96,298.84-63.07,332.45-124.66"/>
  <path class="cls-3" d="m798.88,1603.79c-79.44,20.98-241.32-20.99-241.32-20.99,0,0,98.58,34.81,187.77,46.06,89.18,11.24,116.91-8.24,144.64,20.24,23.45,24.09-40.34,47.58-101.01,35.89,25.04,7.07,51.7,12.7,74.37,13.23,64.45,1.5,85.44-3,56.96-47.97-28.48-44.97-41.97-67.45-121.41-46.46"/>
  <path class="cls-3" d="m944.27,1758.17c-173.87-11.24-242.07-104.17-242.07-104.17,0,0,53.62,90.28,167.54,129.25,113.92,38.97,143.86-19.48,287.39,361.23v-55.8s-50.98-157.38-106.44-248.82c-55.46-91.43-106.42-81.68-106.42-81.68"/>
  <path class="cls-3" d="m731.07,1976.6c-232.33-176.86-302.09-422.62-302.09-422.62,78.3,328.56,340.25,479.64,340.25,479.64l-14.99-85.43c335.75,116.91,402.88,314.76,402.88,314.76v-60.02c-164.49-233.82-427.56-292.28-427.56-292.28l1.5,65.95Z"/>
  <path class="cls-3" d="m405,1811.78c5.99-74.94,23.98-257.81,23.98-257.81l-42.65,170.81c-152.88-208.34-107.23-457.09-107.23-457.09-88.44,308.77,125.9,544.09,125.9,544.09"/>
  <path class="cls-3" d="m517.46,1927.89s146.14,170.87,341.74,215.09l-10.49-53.21s145.09.03,308.42,379.22c163.33-379.19,308.42-379.22,308.42-379.22l-10.49,53.21c195.61-44.22,341.75-215.09,341.75-215.09,5.99,58.46,1.53,147.69,1.53,147.69,61.78-54.54,111.45-111.67,151.41-168.55.75,231.8-120.8,347.53-132.47,358.11-.3.27-.6.53-.9.8,0,0,93.59-116.21,101.84-264.6,0,0-23.16,42.07-119.88,74.24,0,0,50.96-169.37,34.47-257.81,0,0-85.44,169.37-340.24,295.28,0,0,4.5-41.97,11.99-76.44,0,0-79.44,10.49-178.36,109.42-98.92,98.92-169.06,248.82-169.06,248.82,0,0-70.14-149.89-169.06-248.82-98.92-98.92-178.36-109.42-178.36-109.42,7.5,34.47,11.99,76.44,11.99,76.44-254.81-125.91-340.24-295.28-340.24-295.28-16.49,88.44,34.48,257.81,34.48,257.81-61.79-54.54-111.45-111.67-151.42-168.55-.74,231.8,120.8,347.53,132.47,358.11.3.27.59.53.9.8,0,0-93.59-116.21-101.84-264.6,0,0,23.16,42.07,119.88,74.24,0,0-4.47-89.23,1.53-147.69"/>
  <path class="cls-3" d="m2110.84,464.28c-58.46,104.92-170.87,188.86-398.7,254.81,146.2-50.94,222.53-119.93,222.53-119.93-32.98-6.75-77.95-26.98-77.95-26.98,162.72-13.11,217.34-206.85,217.34-206.85-82.44,64.45-364.23,193.36-364.23,193.36l56.96,14.99c-238.32,16.49-341.74,224.83-341.74,224.83,50.77-13.18,106.42,4.5,106.42,4.5-94.43,52.46-160.37,200.84-160.37,200.84,175.36-94.43,411.61-151.23,411.61-151.23-29.96,12.73-145.05,61.92-231.69,103.29-100.42,47.97-172.37,94.43-255.56,176.86,0,0-28.48-188.85,169.37-308.76,0,0-82.43,13.48-116.91,31.48,0,0,115.41-217.34,307.27-313.26,191.86-95.93,430.18-221.83,544.1-313.26,0,0-29.98,130.4-88.43,235.32"/>
  <path class="cls-3" d="m1712.13,719.09s232.32-25.48,352.23-40.47c0,0-50.96,106.42-383.71,154.39,199.42-36.71,303.46-118.43,303.46-118.43-41.22,9.74-271.98,4.52-271.98,4.52"/>
  <path class="cls-3" d="m1157.13,1017.73v-73.22c24.63,15.96,47.58,32.36,47.58,32.36,11.99-69.7,59.21-160.38,59.21-160.38-29.98,10.49-68.95,50.96-68.95,50.96,46.46-85.44,130.4-203.85,130.4-203.85-62.95,7.49-124.78,27.38-124.78,27.38,118.41-112.42,296.78-115.41,296.78-115.41-194.85,152.89-287.78,509.61-287.78,509.61l-52.46-67.45Z"/>
  <path class="cls-3" d="m1717.7,431.67c-274.29-25.48-412.19,52.46-412.19,52.46,0,0,125.53-91.08,282.16-82.09,0,0-139.4-95.93-312.52-30.73l37.56,30.02s-48.26-5.99-101.93-5.99c0,0,76.44-94.43,230.83-70.45,154.39,23.98,276.09,106.78,276.09,106.78"/>
  <path class="cls-3" d="m1305.51,484.13c148.38-62.95,328.26,0,328.26,0-79.44,43.47-112.41,32.98-244.32,79.44-124.06,43.7-181.82,117.9-188.25,126.57,7.25-9.87,78.81-104.76,179.62-150.21,106.42-47.96,151.4-47.21,151.4-47.21,0,0-114.78-46.01-226.7-8.59"/>
  <path class="cls-3" d="m1312.72,401.34s-115.48,103.38-155.59,224.78v-40.42s67.15-142.39,155.59-184.36"/>
  <polygon class="cls-3" points="1256.84 1761.92 1322.78 1519.1 1326.13 1615.38 1399.98 1537.84 1256.84 1761.92"/>
  <path class="cls-3" d="m2003.62,1169.46s29.22,195.6-193.36,296.03c0,0-137.15,42.72-251.81,1.5,0,0,125.27,90.78,284.84,30.03-227.83,109.42-403.2-94.43-403.2-94.43,43.47,22.48,301.28,85.43,407.7-77.94,106.42-163.37,23.98-335.75,23.98-335.75,0,0,68.94,106.42,59.95,236.82-9,130.4-148.39,224.83-148.39,224.83,85.43-37.47,166.37-119.91,187.36-262.3,20.98-142.39-91.55-281.96-91.56-281.96,32.03-16.31,67.22-36.07,106.88-60.92,5.31-3.33,10.49-6.66,15.6-10.01,26.67,225.22,129.47,345.41,129.47,345.41l-140.9-70.45c43.47,41.97,139.4,233.83,139.4,233.83l-94.43-76.45,32.16,7.43-63.7-105.67Z"/>
  <path class="cls-3" d="m1412.43,1459.8c231.61,177.09,430.86,37.21,430.86,37.21,0,0-68.25,73.4-215.9,68.9,0,0,66.34,23.23,117.5,18.55-179.3,22.96-298.85-63.07-332.46-124.66"/>
  <path class="cls-3" d="m1515.38,1603.79c79.44,20.98,241.32-20.99,241.32-20.99,0,0-98.59,34.81-187.77,46.06-89.18,11.24-116.91-8.24-144.64,20.24-23.46,24.09,40.34,47.58,101.01,35.89-25.03,7.07-51.69,12.7-74.37,13.23-64.46,1.5-85.44-3-56.96-47.97,28.48-44.97,41.97-67.45,121.41-46.46"/>
  <path class="cls-3" d="m1369.99,1758.17c173.87-11.24,242.07-104.17,242.07-104.17,0,0-53.62,90.28-167.53,129.25-113.92,38.97-143.86-19.48-287.4,361.23v-55.8s50.98-157.38,106.44-248.82c55.46-91.43,106.42-81.68,106.42-81.68"/>
  <path class="cls-3" d="m1583.19,1976.6c232.33-176.86,302.09-422.62,302.09-422.62-78.29,328.56-340.25,479.64-340.25,479.64l14.99-85.43c-335.75,116.91-402.88,314.76-402.88,314.76v-60.02c164.49-233.82,427.56-292.28,427.56-292.28l-1.5,65.95Z"/>
  <path class="cls-3" d="m1909.26,1811.78c-5.99-74.94-23.98-257.81-23.98-257.81l42.65,170.81c152.89-208.34,107.23-457.09,107.23-457.09,88.44,308.77-125.9,544.09-125.9,544.09"/>
  <path class="cls-3" d="m1543.58,2423.31l45.62,197.06c308.76-158.88,380.71-499.87,380.71-499.87-53.96,68.2-153.54,145.44-153.54,145.44,0,0,.31-.26.9-.8,134.22-119.72,181.97-257.01,181.97-257.01-17.99,443.67-457.16,716.46-457.16,716.46,0-158.88,1.5-301.28,1.5-301.28-106.3,406.97-386.45,566.57-386.45,566.57,0,0-280.15-159.61-386.45-566.57l-45.63,197.06c-308.76-158.88-380.71-499.87-380.71-499.87,53.96,68.2,153.54,145.44,153.54,145.44,0,0-.31-.26-.9-.8-134.22-119.72-181.97-257.01-181.97-257.01,17.98,443.67,457.16,716.46,457.16,716.46,0-158.88-1.5-301.28-1.5-301.28,0,0,79.87,269.91,254.15,403.9,0,0-58.46-49.46-56.96-157.38,0,0,18.77,142.39,189.25,184.37,170.48-41.97,189.25-184.37,189.25-184.37,1.5,107.92-56.96,157.38-56.96,157.38,174.29-133.99,254.16-403.9,254.16-403.9"/>
  <path class="cls-1" d="m981.69,1178.57c-20.13,123.59-127.36,217.95-256.64,217.95-143.62,0-260.05-116.43-260.05-260.06,0-74.28,31.14-141.28,81.09-188.67,29.68,10.78,87.06,32.79,156.25,65.24-57.03,16.62-98.7,69.28-98.7,131.67,0,75.74,61.41,137.14,137.15,137.14s137.14-61.4,137.14-137.14c0-14.35-2.2-28.18-6.29-41.17,37.28,22.8,74.54,47.84,110.05,75.04"/>
  <path class="cls-2" d="m480.22,1048.59s54.47-41.78,147.4-26.04c0,0-126.66,129.65-2.25,275.79l-4.5-31.47s73.44,86.18,217.33,11.99l-32.22,42.72s85.43-35.97,100.42-136.4c0,0,30.97,23.49,56.69,56.12,8.7-19.74,15.03-40.78,18.6-62.73-35.51-27.2-72.77-52.24-110.05-75.04,4.09,13,6.29,26.83,6.29,41.17,0,75.74-61.4,137.14-137.14,137.14s-137.15-61.4-137.15-137.14c0-62.39,41.67-115.05,98.7-131.67-69.19-32.45-126.57-54.46-156.25-65.24-29.21,27.72-51.99,62.14-65.87,100.8"/>
  <path class="cls-1" d="m806.7,1108.72c22.97,0,41.59,18.62,41.59,41.59s-18.62,41.59-41.59,41.59-41.59-18.62-41.59-41.59,18.62-41.59,41.59-41.59"/>
  <path class="cls-3" d="m555.25,2151.18c-39.72-21.73-107.17-50.21-107.17-50.21,33.72,116.91,98.18,193.36,98.18,193.36-70.45-2.25-114.67-23.98-114.67-23.98,78.69,169.37,266.06,247.31,266.06,247.31-.28-87.94,46.46-191.86,46.46-191.86,48.19,138.12,163.38,199.35,232.33,229.33,68.95,29.98,56.96,85.43,56.96,85.43-32.98-1.5-37.48-11.99-37.48-11.99,34.48,125.91,134.9,50.96,134.9,50.96-53.95-344.74-271.28-481.14-271.28-481.14l13.49,86.93c-179.86-62.95-308.77-220.33-308.77-220.33,0,0-13.5,53.96-9,86.18"/>
  <path class="cls-1" d="m1332.56,1178.57c20.13,123.59,127.36,217.95,256.64,217.95,143.62,0,260.05-116.43,260.05-260.06,0-74.28-31.14-141.28-81.09-188.67-29.68,10.78-87.06,32.79-156.26,65.24,57.03,16.62,98.7,69.28,98.7,131.67,0,75.74-61.4,137.14-137.15,137.14s-137.15-61.4-137.15-137.14c0-14.35,2.21-28.18,6.29-41.17-37.29,22.8-74.55,47.84-110.05,75.04"/>
  <path class="cls-2" d="m1834.04,1048.59s-54.48-41.78-147.4-26.04c0,0,126.66,129.65,2.25,275.79l4.5-31.47s-73.45,86.18-217.34,11.99l32.23,42.72s-85.44-35.97-100.42-136.4c0,0-30.96,23.49-56.68,56.12-8.71-19.74-15.03-40.78-18.61-62.73,35.51-27.2,72.77-52.24,110.05-75.04-4.09,13-6.29,26.83-6.29,41.17,0,75.74,61.4,137.14,137.15,137.14s137.15-61.4,137.15-137.14c0-62.39-41.67-115.05-98.7-131.67,69.19-32.45,126.58-54.46,156.26-65.24,29.21,27.72,51.99,62.14,65.87,100.8"/>
  <path class="cls-1" d="m1507.56,1108.72c-22.97,0-41.6,18.62-41.6,41.59s18.63,41.59,41.6,41.59,41.59-18.62,41.59-41.59-18.62-41.59-41.59-41.59"/>
  <path class="cls-3" d="m1759,2151.18c39.72-21.73,107.17-50.21,107.17-50.21-33.72,116.91-98.18,193.36-98.18,193.36,70.45-2.25,114.66-23.98,114.66-23.98-78.69,169.37-266.06,247.31-266.06,247.31.28-87.94-46.46-191.86-46.46-191.86-48.19,138.12-163.38,199.35-232.32,229.33-68.95,29.98-56.96,85.43-56.96,85.43,32.98-1.5,37.48-11.99,37.48-11.99-34.47,125.91-134.9,50.96-134.9,50.96,53.96-344.74,271.28-481.14,271.28-481.14l-13.49,86.93c179.86-62.95,308.77-220.33,308.77-220.33,0,0,13.5,53.96,9,86.18"/>
</svg>